<svg width="40" height="40" viewBox="0 0 40 40" fill="none" xmlns="http://www.w3.org/2000/svg">
<path d="M20.0033 26.3888C22.0103 26.3888 23.7151 25.6863 25.1179 24.2813C26.5207 22.8765 27.2221 21.1706 27.2221 19.1633C27.2221 17.1564 26.5196 15.4515 25.1146 14.0488C23.7099 12.646 22.0039 11.9446 19.9967 11.9446C17.9897 11.9446 16.2849 12.6471 14.8821 14.0521C13.4793 15.4568 12.7779 17.1628 12.7779 19.17C12.7779 21.1769 13.4804 22.8818 14.8854 24.2846C16.2901 25.6874 17.9961 26.3888 20.0033 26.3888ZM19.9933 23.7779C18.7108 23.7779 17.6228 23.3289 16.7292 22.4308C15.8356 21.5331 15.3888 20.4428 15.3888 19.16C15.3888 17.8775 15.8378 16.7894 16.7358 15.8958C17.6336 15.0022 18.7239 14.5554 20.0067 14.5554C21.2892 14.5554 22.3772 15.0044 23.2708 15.9025C24.1644 16.8003 24.6113 17.8906 24.6113 19.1733C24.6113 20.4558 24.1622 21.5439 23.2642 22.4375C22.3664 23.3311 21.2761 23.7779 19.9933 23.7779ZM20 31.6667C15.9444 31.6667 12.2685 30.5208 8.97208 28.2292C5.67597 25.9375 3.24083 22.9167 1.66667 19.1667C3.24083 15.4167 5.67597 12.3958 8.97208 10.1042C12.2685 7.81251 15.9444 6.66667 20 6.66667C24.0556 6.66667 27.7315 7.81251 31.0279 10.1042C34.324 12.3958 36.7592 15.4167 38.3333 19.1667C36.7592 22.9167 34.324 25.9375 31.0279 28.2292C27.7315 30.5208 24.0556 31.6667 20 31.6667ZM19.9954 28.8888C23.2854 28.8888 26.3078 28.0068 29.0625 26.2429C31.8172 24.479 33.9168 22.1203 35.3613 19.1667C33.9168 16.2131 31.8188 13.8543 29.0671 12.0904C26.3157 10.3265 23.2949 9.44459 20.0046 9.44459C16.7146 9.44459 13.6922 10.3265 10.9375 12.0904C8.18278 13.8543 6.07403 16.2131 4.61125 19.1667C6.07403 22.1203 8.18125 24.479 10.9329 26.2429C13.6843 28.0068 16.7051 28.8888 19.9954 28.8888Z" fill="#474747"/>
</svg>
