<svg width="40" height="40" viewBox="0 0 40 40" fill="none" xmlns="http://www.w3.org/2000/svg">
<path d="M20 19.9721C18.1667 19.9721 16.6435 19.3657 15.4304 18.1529C14.2176 16.9399 13.6112 15.4167 13.6112 13.5833C13.6112 11.75 14.2176 10.2268 15.4304 9.01375C16.6435 7.80097 18.1667 7.19458 20 7.19458C21.8333 7.19458 23.3565 7.80097 24.5696 9.01375C25.7824 10.2268 26.3887 11.75 26.3887 13.5833C26.3887 15.4167 25.7824 16.9399 24.5696 18.1529C23.3565 19.3657 21.8333 19.9721 20 19.9721ZM6.66666 33.3333V29.1667C6.66666 28.1481 6.92361 27.2568 7.4375 26.4929C7.95139 25.729 8.62041 25.1481 9.44458 24.75C11.2593 23.9075 13.0324 23.2756 14.7637 22.8542C16.4954 22.4328 18.2408 22.2221 20 22.2221C21.7592 22.2221 23.4999 22.4374 25.2221 22.8679C26.9443 23.2985 28.7121 23.9276 30.5254 24.7554C31.3737 25.156 32.0537 25.7367 32.5654 26.4975C33.0774 27.2583 33.3333 28.1481 33.3333 29.1667V33.3333H6.66666ZM9.44458 30.5554H30.5554V29.1667C30.5554 28.7686 30.4421 28.3936 30.2154 28.0417C29.9885 27.6897 29.7037 27.4258 29.3612 27.25C27.676 26.4258 26.0879 25.8449 24.5971 25.5071C23.1065 25.169 21.5742 25 20 25C18.4258 25 16.8842 25.169 15.375 25.5071C13.8658 25.8449 12.2779 26.4258 10.6112 27.25C10.2685 27.4258 9.98833 27.6897 9.77083 28.0417C9.55333 28.3936 9.44458 28.7686 9.44458 29.1667V30.5554ZM20 17.1946C21.0278 17.1946 21.8865 16.8496 22.5762 16.1596C23.2662 15.4699 23.6112 14.6111 23.6112 13.5833C23.6112 12.5556 23.2662 11.6968 22.5762 11.0071C21.8865 10.3171 21.0278 9.97208 20 9.97208C18.9722 9.97208 18.1135 10.3171 17.4237 11.0071C16.7337 11.6968 16.3887 12.5556 16.3887 13.5833C16.3887 14.6111 16.7337 15.4699 17.4237 16.1596C18.1135 16.8496 18.9722 17.1946 20 17.1946Z" fill="#474747"/>
</svg>
